<svg width="40" height="40" viewBox="0 0 40 40" fill="none" xmlns="http://www.w3.org/2000/svg">
<g id="Frame">
<g id="Group">
<path id="Vector" d="M11 14C11 13.4477 11.4477 13 12 13H28C28.5523 13 29 13.4477 29 14V14C29 14.5523 28.5523 15 28 15H12C11.4477 15 11 14.5523 11 14V14ZM11 20C11 19.4477 11.4477 19 12 19H28C28.5523 19 29 19.4477 29 20V20C29 20.5523 28.5523 21 28 21H12C11.4477 21 11 20.5523 11 20V20ZM11 26C11 25.4477 11.4477 25 12 25H28C28.5523 25 29 25.4477 29 26V26C29 26.5523 28.5523 27 28 27H12C11.4477 27 11 26.5523 11 26V26Z" fill="#03B2A5"/>
</g>
</g>
</svg>
